#Comment line ignore any data following # character 
#Hierarchical Translation and Rotation (.htr) file 
[Header]	
#Header keywords are followed by a single value 
FileType HTR		#Single word string
DataType HTRS		#Translation followed by rotation and scale data
FileVersion 1		#integer
NumSegments 64		#integer
NumFrames 3		#integer
DataFrameRate 30		#integer, data frame rate in this file
EulerRotationOrder ZYX
CalibrationUnits mm
RotationUnits Degrees
GlobalAxisofGravity Y
BoneLengthAxis Y
ScaleFactor 1.00
[SegmentNames&Hierarchy]
#CHILD	PARENT
Pinger_Root GLOBAL
Pelvis Pinger_Root
L_Hip Pelvis
R_Hip Pelvis
Rear_Leg01 Pelvis
Spine1 Pelvis
L_Leg01 L_Hip
L_Leg02 L_Leg01
L_Leg03 L_Leg02
L_Foot L_Leg03
L_Toe1_01 L_Foot
L_Toe2_01 L_Foot
L_Toe3_01 L_Foot
planeAlignerLeft L_Foot
L_Toe1_02 L_Toe1_01
L_Toe1_03 L_Toe1_02
L_Toe2_02 L_Toe2_01
L_Toe2_03 L_Toe2_02
L_Toe3_02 L_Toe3_01
L_Toe3_03 L_Toe3_02
planeLockWeightLeft planeAlignerLeft
R_Leg01 R_Hip
R_Leg02 R_Leg01
R_Leg03 R_Leg02
R_Foot R_Leg03
planeAlignerRight R_Foot
R_Toe1_01 R_Foot
R_Toe2_01 R_Foot
R_Toe3_01 R_Foot
planeLockWeightRight planeAlignerRight
R_Toe1_02 R_Toe1_01
R_Toe1_03 R_Toe1_02
R_Toe2_02 R_Toe2_01
R_Toe2_03 R_Toe2_02
R_Toe3_02 R_Toe3_01
R_Toe3_03 R_Toe3_02
Rear_Leg02 Rear_Leg01
Rear_Leg03 Rear_Leg02
Rear_Leg04 Rear_Leg03
Rear_Foot Rear_Leg04
planeAlignerCenter Rear_Foot
Rear_Toe1_01 Rear_Foot
Rear_Toe2_01 Rear_Foot
Rear_Toe3_01 Rear_Foot
planeLockWeightCenter planeAlignerCenter
Rear_Toe1_02 Rear_Toe1_01
Rear_Toe1_03 Rear_Toe1_02
Rear_Toe2_02 Rear_Toe2_01
Rear_Toe2_03 Rear_Toe2_02
Rear_Toe3_02 Rear_Toe3_01
Rear_Toe3_03 Rear_Toe3_02
Back_Bone Spine1
Head Spine1
Motor_Bone Back_Bone
Ping_Mechanism Back_Bone
BN_LookIK Head
bottomMouth Head
L_Mouth01 Head
L_mouthFront Head
mouthGun Head
R_Mouth01 Head
R_mouthFront Head
TopMouth Head
weapon_bone Head
[BasePosition]
#SegmentName Tx, Ty, Tz, Rx, Ry, Rz, BoneLength
Pinger_Root 0.000000 0.000000 0.000000 -90.000000 0.000000 0.000000 10.000000 
Pelvis 0.000000 0.000000 0.000000 0.000000 0.000000 0.000000 10.000000 
L_Hip 0.000000 0.000000 0.000000 0.000000 0.000000 0.000000 10.000000 
R_Hip 0.000000 0.000000 0.000000 0.000000 0.000000 0.000000 10.000000 
Rear_Leg01 0.000000 0.000000 0.000000 0.000000 0.000000 0.000000 10.000000 
Spine1 0.000000 0.000000 0.000000 0.000000 0.000000 0.000000 10.000000 
L_Leg01 0.000000 0.000000 0.000000 0.000000 0.000000 0.000000 10.000000 
L_Leg02 0.000000 0.000000 0.000000 0.000000 0.000000 0.000000 10.000000 
L_Leg03 0.000000 0.000000 0.000000 0.000000 0.000000 0.000000 10.000000 
L_Foot 0.000000 0.000000 0.000000 0.000000 0.000000 0.000000 10.000000 
L_Toe1_01 0.000000 0.000000 0.000000 0.000000 0.000000 0.000000 10.000000 
L_Toe2_01 0.000000 0.000000 0.000000 0.000000 0.000000 0.000000 10.000000 
L_Toe3_01 0.000000 0.000000 0.000000 0.000000 0.000000 0.000000 10.000000 
planeAlignerLeft 0.000000 0.000000 0.000000 0.000000 0.000000 0.000000 10.000000 
L_Toe1_02 0.000000 0.000000 0.000000 0.000000 0.000000 0.000000 10.000000 
L_Toe1_03 0.000000 0.000000 0.000000 0.000000 0.000000 0.000000 10.000000 
L_Toe2_02 0.000000 0.000000 0.000000 0.000000 0.000000 0.000000 10.000000 
L_Toe2_03 0.000000 0.000000 0.000000 0.000000 0.000000 0.000000 10.000000 
L_Toe3_02 0.000000 0.000000 0.000000 0.000000 0.000000 0.000000 10.000000 
L_Toe3_03 0.000000 0.000000 0.000000 0.000000 0.000000 0.000000 10.000000 
planeLockWeightLeft 0.000000 0.000000 0.000000 0.000000 0.000000 0.000000 10.000000 
R_Leg01 0.000000 0.000000 0.000000 0.000000 0.000000 0.000000 10.000000 
R_Leg02 0.000000 0.000000 0.000000 0.000000 0.000000 0.000000 10.000000 
R_Leg03 0.000000 0.000000 0.000000 0.000000 0.000000 0.000000 10.000000 
R_Foot 0.000000 0.000000 0.000000 0.000000 0.000000 0.000000 10.000000 
planeAlignerRight 0.000000 0.000000 0.000000 0.000000 0.000000 0.000000 10.000000 
R_Toe1_01 0.000000 0.000000 0.000000 0.000000 0.000000 0.000000 10.000000 
R_Toe2_01 0.000000 0.000000 0.000000 0.000000 0.000000 0.000000 10.000000 
R_Toe3_01 0.000000 0.000000 0.000000 0.000000 0.000000 0.000000 10.000000 
planeLockWeightRight 0.000000 0.000000 0.000000 0.000000 0.000000 0.000000 10.000000 
R_Toe1_02 0.000000 0.000000 0.000000 0.000000 0.000000 0.000000 10.000000 
R_Toe1_03 0.000000 0.000000 0.000000 0.000000 0.000000 0.000000 10.000000 
R_Toe2_02 0.000000 0.000000 0.000000 0.000000 0.000000 0.000000 10.000000 
R_Toe2_03 0.000000 0.000000 0.000000 0.000000 0.000000 0.000000 10.000000 
R_Toe3_02 0.000000 0.000000 0.000000 0.000000 0.000000 0.000000 10.000000 
R_Toe3_03 0.000000 0.000000 0.000000 0.000000 0.000000 0.000000 10.000000 
Rear_Leg02 0.000000 0.000000 0.000000 0.000000 0.000000 0.000000 10.000000 
Rear_Leg03 0.000000 0.000000 0.000000 0.000000 0.000000 0.000000 10.000000 
Rear_Leg04 0.000000 0.000000 0.000000 0.000000 0.000000 0.000000 10.000000 
Rear_Foot 0.000000 0.000000 0.000000 0.000000 0.000000 0.000000 10.000000 
planeAlignerCenter 0.000000 0.000000 0.000000 0.000000 0.000000 0.000000 10.000000 
Rear_Toe1_01 0.000000 0.000000 0.000000 0.000000 0.000000 0.000000 10.000000 
Rear_Toe2_01 0.000000 0.000000 0.000000 0.000000 0.000000 0.000000 10.000000 
Rear_Toe3_01 0.000000 0.000000 0.000000 0.000000 0.000000 0.000000 10.000000 
planeLockWeightCenter 0.000000 0.000000 0.000000 0.000000 0.000000 0.000000 10.000000 
Rear_Toe1_02 0.000000 0.000000 0.000000 0.000000 0.000000 0.000000 10.000000 
Rear_Toe1_03 0.000000 0.000000 0.000000 0.000000 0.000000 0.000000 10.000000 
Rear_Toe2_02 0.000000 0.000000 0.000000 0.000000 0.000000 0.000000 10.000000 
Rear_Toe2_03 0.000000 0.000000 0.000000 0.000000 0.000000 0.000000 10.000000 
Rear_Toe3_02 0.000000 0.000000 0.000000 0.000000 0.000000 0.000000 10.000000 
Rear_Toe3_03 0.000000 0.000000 0.000000 0.000000 0.000000 0.000000 10.000000 
Back_Bone 0.000000 0.000000 0.000000 0.000000 0.000000 0.000000 10.000000 
Head 0.000000 0.000000 0.000000 0.000000 0.000000 0.000000 10.000000 
Motor_Bone 0.000000 0.000000 0.000000 0.000000 0.000000 0.000000 10.000000 
Ping_Mechanism 0.000000 0.000000 0.000000 0.000000 0.000000 0.000000 10.000000 
BN_LookIK 0.000000 0.000000 0.000000 0.000000 0.000000 0.000000 10.000000 
bottomMouth 0.000000 0.000000 0.000000 0.000000 0.000000 0.000000 10.000000 
L_Mouth01 0.000000 0.000000 0.000000 0.000000 0.000000 0.000000 10.000000 
L_mouthFront 0.000000 0.000000 0.000000 0.000000 0.000000 0.000000 10.000000 
mouthGun 0.000000 0.000000 0.000000 0.000000 0.000000 0.000000 10.000000 
R_Mouth01 0.000000 0.000000 0.000000 0.000000 0.000000 0.000000 10.000000 
R_mouthFront 0.000000 0.000000 0.000000 0.000000 0.000000 0.000000 10.000000 
TopMouth 0.000000 0.000000 0.000000 0.000000 0.000000 0.000000 10.000000 
weapon_bone 0.000000 0.000000 0.000000 0.000000 0.000000 0.000000 10.000000 
#Beginning of Data. Separated by tabs
#Fr	Tx	Ty	Tz	Rx	Ry	Rz	SF
[Pinger_Root]
45 -5703.701660 0.000000 0.000000 -0.000075 -0.000000 -0.000020 5703.701660
46 -5833.331543 0.000000 0.000000 -0.000075 -0.000000 -0.000020 5833.331543
47 -5962.961426 0.000000 0.000000 -0.000075 -0.000000 -0.000020 5962.961426
[Pelvis]
45 -668.433716 527.135498 4977.245117 -112.673386 -70.302666 161.923950 5049.519531
46 -695.703064 543.272217 4961.094727 -117.393738 -69.611771 164.392441 5039.008789
47 -722.383057 552.268982 4959.201172 -120.358826 -69.137115 165.070587 5041.876465
[L_Hip]
45 5.766392 125.831482 872.656799 -178.250168 -81.786369 87.376007 881.701050
46 5.766392 125.831482 872.656799 -178.250168 -81.786369 87.376007 881.701050
47 5.766392 125.831482 872.656799 -178.250168 -81.786369 87.376007 881.701050
[R_Hip]
45 5.765438 125.836372 -872.654907 -1.748770 81.786041 87.376961 881.699829
46 5.765438 125.836372 -872.654907 -1.748770 81.786041 87.376961 881.699829
47 5.765438 125.836372 -872.654907 -1.748770 81.786041 87.376961 881.699829
[Rear_Leg01]
45 -192.298416 -925.602966 -0.001907 -165.527649 20.156660 -166.444672 945.367432
46 -192.298416 -925.602966 -0.001907 -168.398315 19.937981 -165.587891 945.367432
47 -192.298416 -925.602966 -0.001907 -170.082016 20.201977 -162.837067 945.367432
[Spine1]
45 290.604584 5.007505 0.000477 -35.791206 24.665781 4.233776 290.647736
46 290.604584 5.007505 0.000477 -32.938160 25.278646 4.780835 290.647736
47 290.604584 5.007505 0.000477 -30.047304 25.398443 5.505957 290.647736
[L_Leg01]
45 761.932007 -0.002384 -0.069261 57.834328 -29.420521 -35.698589 761.932068
46 761.932007 -0.002384 -0.069261 57.477619 -24.502272 -36.145760 761.932068
47 761.932007 -0.002384 -0.069261 57.948330 -17.093822 -39.813305 761.932068
[L_Leg02]
45 1441.140503 -0.000954 -0.000715 -1.398769 0.665729 -103.894424 1441.140503
46 1441.140503 -0.000954 -0.000715 -1.407511 0.604723 -104.201469 1441.140503
47 1441.140503 -0.000954 -0.000715 -1.471543 0.530703 -98.731117 1441.140503
[L_Leg03]
45 1686.963989 -0.000715 -0.000954 0.057689 -0.016338 94.644508 1686.963989
46 1686.963989 -0.000715 -0.000954 0.047019 -0.013670 97.666916 1686.963989
47 1686.963989 -0.000715 -0.000954 0.036505 -0.010444 100.689369 1686.963989
[L_Foot]
45 3041.570068 -30.715107 11.297464 -32.864037 6.470451 64.305923 3041.746094
46 3041.570068 -30.715107 11.297464 -32.876358 6.779226 65.259644 3041.746094
47 3041.570068 -30.715107 11.297464 -32.483871 7.497826 64.006340 3041.746094
[L_Toe1_01]
45 -188.216690 -224.732346 -21.137953 89.226913 -2.122470 -157.877899 293.899567
46 -188.216690 -224.732346 -21.137953 89.186066 -1.862056 -158.919525 293.899567
47 -188.216690 -224.732346 -21.137953 89.163811 -1.285969 -160.420700 293.899567
[L_Toe2_01]
45 200.746536 -219.926590 148.838394 -76.712189 -8.894067 -53.170017 332.896027
46 200.746536 -219.926590 148.838394 -76.725540 -9.394635 -52.413898 332.896027
47 200.746536 -219.926590 148.838394 -77.114479 -11.019379 -48.934532 332.896027
[L_Toe3_01]
45 188.832520 -219.859131 -191.078659 -107.223343 10.826044 -55.312607 347.140900
46 188.832520 -219.859131 -191.078659 -107.334229 11.962566 -54.413544 347.140900
47 188.832520 -219.859131 -191.078659 -107.221817 15.118653 -51.211830 347.140900
[planeAlignerLeft]
45 113.060303 -749.300354 -0.023193 0.000000 -90.000000 -90.001900 757.782043
46 75.579185 -725.902466 -3.950135 0.000000 -90.000000 -90.001900 729.837036
47 -6.885335 -674.423035 -12.590810 0.000000 -90.000000 -90.001900 674.575684
[L_Toe1_02]
45 413.761139 0.000477 0.000000 0.001424 -20.961100 0.001424 413.761139
46 413.761139 0.000477 0.000000 0.001418 -21.675711 0.001418 413.761139
47 413.761139 0.000477 0.000000 0.001405 -23.337227 0.001405 413.761139
[L_Toe1_03]
45 464.317322 0.000358 -0.000089 0.043951 86.939568 0.043951 464.317322
46 464.317322 0.000358 -0.000089 0.023239 84.210228 0.023239 464.317322
47 464.317322 0.000358 -0.000089 0.010266 76.871689 0.010266 464.317322
[L_Toe2_02]
45 342.235809 -0.000477 0.000238 0.001202 -64.891136 0.001202 342.235809
46 342.235809 -0.000477 0.000238 0.001192 -69.613335 0.001192 342.235809
47 342.235809 -0.000477 0.000238 0.001182 -76.375603 0.001182 342.235809
[L_Toe2_03]
45 420.210846 -0.000715 0.000000 -0.001414 69.250450 -0.004969 420.210846
46 420.210846 -0.000715 0.000000 0.011942 78.720680 0.011942 420.210846
47 420.210846 -0.000715 0.000000 -179.992935 82.528450 -179.989441 420.210846
[L_Toe3_02]
45 329.270111 0.000954 0.000000 -0.010873 -70.434631 0.009707 329.270111
46 329.270111 0.000954 0.000000 0.001185 -74.164803 0.001185 329.270111
47 329.270111 0.000954 0.000000 0.001178 -79.782288 0.001178 329.270111
[L_Toe3_03]
45 439.137451 -0.001907 0.000954 -0.002458 74.355110 -0.005988 439.137451
46 439.137451 -0.001907 0.000954 0.017870 82.468941 0.017870 439.137451
47 439.137451 -0.001907 0.000954 -179.994141 81.329910 -179.990646 439.137451
[planeLockWeightLeft]
45 999.999695 0.098267 0.076162 -0.011826 -0.004376 0.005620 999.999695
46 999.999695 0.098267 0.076154 -0.011826 -0.004376 0.005620 999.999695
47 999.999695 0.098267 0.076147 -0.011826 -0.004376 0.005620 999.999695
[R_Leg01]
45 761.455627 -0.001907 -0.000358 142.226166 -50.684795 59.793053 761.455688
46 761.455627 -0.001907 -0.000358 136.298843 -49.895866 65.264053 761.455688
47 761.455627 -0.001907 -0.000358 129.631744 -48.751892 70.313911 761.455688
[R_Leg02]
45 1441.140625 0.000000 -0.000238 0.096027 -0.064357 -118.890892 1441.140625
46 1441.140625 0.000000 -0.000238 0.131151 -0.054506 -116.172379 1441.140625
47 1441.140625 0.000000 -0.000238 0.158303 -0.059650 -112.808479 1441.140625
[R_Leg03]
45 1686.963989 0.000954 0.001431 -0.031803 0.010096 101.010246 1686.963989
46 1686.963989 0.000954 0.001431 -0.033553 0.010231 100.899490 1686.963989
47 1686.963989 0.000954 0.001431 -0.035303 0.010363 100.788773 1686.963989
[R_Foot]
45 3041.560059 -30.531288 -11.204481 1.461373 -5.427392 64.708168 3041.734131
46 3041.560059 -30.531288 -11.204481 2.998170 -5.820992 64.292770 3041.734131
47 3041.560059 -30.531288 -11.204481 4.609400 -6.908190 63.577190 3041.734131
[planeAlignerRight]
45 -0.408308 -812.165833 -0.683282 0.000000 -89.960434 -90.005180 812.166260
46 -0.404358 -807.737244 -0.681763 0.000000 -89.960434 -90.005180 807.737610
47 -0.409851 -795.866333 -0.674133 0.000000 -89.960434 -90.005180 795.866699
[R_Toe1_01]
45 -188.383347 -224.864899 21.052242 91.065071 1.810556 -149.171463 294.101532
46 -188.383347 -224.864899 21.052242 91.047401 1.824592 -149.570496 294.101532
47 -188.383347 -224.864899 21.052242 91.020226 1.840405 -150.609772 294.101532
[R_Toe2_01]
45 200.637817 -220.002121 -148.787384 -104.730591 9.285368 -58.576767 332.857574
46 200.637817 -220.002121 -148.787384 -104.685509 9.362267 -58.297127 332.857574
47 200.637817 -220.002121 -148.787384 -104.537300 9.596839 -57.380836 332.857574
[R_Toe3_01]
45 188.606735 -220.092957 191.126343 -70.888466 -11.282332 -60.518173 347.192566
46 188.606735 -220.092957 191.126343 -70.937225 -11.378602 -60.240295 347.192566
47 188.606735 -220.092957 191.126343 -71.128242 -11.693543 -59.306644 347.192566
[planeLockWeightRight]
45 999.999695 -0.000105 0.076213 -0.011823 -0.004379 -0.000027 999.999695
46 999.999695 -0.000095 0.076207 -0.011823 -0.004379 -0.000027 999.999695
47 999.999695 -0.000084 0.076201 -0.011823 -0.004379 -0.000027 999.999695
[R_Toe1_02]
45 413.762085 0.000477 -0.000119 0.001388 -25.434608 0.001388 413.762085
46 413.762085 0.000477 -0.000119 0.001390 -25.224380 0.001390 413.762085
47 413.762085 0.000477 -0.000119 0.001391 -25.014151 0.001391 413.762085
[R_Toe1_03]
45 464.317810 0.000000 0.001088 0.005168 63.750023 0.005168 464.317810
46 464.317810 0.000000 0.001088 0.005279 64.309937 0.005279 464.317810
47 464.317810 0.000000 0.001088 0.005589 65.758636 0.005589 464.317810
[R_Toe2_02]
45 342.234741 -0.000954 0.000238 0.001191 -70.126205 0.001191 342.234741
46 342.234741 -0.000954 0.000238 0.001191 -70.362000 0.001191 342.234741
47 342.234741 -0.000954 0.000238 0.001190 -71.181107 0.001190 342.234741
[R_Toe2_03]
45 420.210846 0.000715 -0.000268 0.013235 79.825386 0.013235 420.210846
46 420.210846 0.000715 -0.000268 0.014054 80.419922 0.014054 420.210846
47 420.210846 0.000715 -0.000268 0.016776 81.976639 0.016776 420.210846
[R_Toe3_02]
45 329.270355 -0.000477 -0.000954 0.001184 -74.661621 0.001184 329.270355
46 329.270355 -0.000477 -0.000954 0.001184 -75.038849 0.001184 329.270355
47 329.270355 -0.000477 -0.000954 0.001183 -75.416084 0.001183 329.270355
[R_Toe3_03]
45 439.137939 0.000238 0.001431 -0.012098 83.631638 -0.008596 439.137939
46 439.137939 0.000238 0.001431 -0.013053 84.170250 -0.009552 439.137939
47 439.137939 0.000238 0.001431 -0.016714 85.597717 -0.013215 439.137939
[Rear_Leg02]
45 1162.777710 -0.029802 0.005960 -3.924273 -4.153552 -46.001274 1162.777710
46 1162.777710 -0.029802 0.005960 -5.420017 -9.570615 -57.195053 1162.777710
47 1162.777710 -0.029802 0.005960 -7.677458 -20.290993 -60.256382 1162.777710
[Rear_Leg03]
45 607.192505 -0.013351 -0.073195 0.003761 0.005677 38.837616 607.192505
46 607.192505 -0.013351 -0.073195 0.004134 0.005412 46.532845 607.192505
47 607.192505 -0.013351 -0.073195 0.008813 0.003096 51.287182 607.192505
[Rear_Leg04]
45 995.874512 -0.020504 -0.011921 -0.029719 -0.008681 17.803568 995.874573
46 995.874512 -0.020504 -0.011921 -0.032814 -0.015500 28.356802 995.874573
47 995.874512 -0.020504 -0.011921 -0.033716 -0.013425 35.503170 995.874573
[Rear_Foot]
45 3096.176270 -0.067472 -0.041425 -10.243896 60.290489 -170.888351 3096.176270
46 3096.176270 -0.067472 -0.041425 -22.386353 61.811821 165.763489 3096.176270
47 3096.176270 -0.067472 -0.041425 -42.684097 57.446720 134.887100 3096.176270
[planeAlignerCenter]
45 1.075668 116.684555 -814.194580 0.000009 0.000003 -179.999985 822.513977
46 -2.317453 124.384796 -805.503723 0.000009 0.000003 -179.999985 815.054077
47 -6.059666 129.700546 -788.083923 0.000009 0.000003 -179.999985 798.708435
[Rear_Toe1_01]
45 0.653352 83.966492 -371.173737 0.057490 30.914017 90.028496 380.553192
46 0.653352 83.966492 -371.173737 -0.122573 36.976772 89.681145 380.553192
47 0.653352 83.966492 -371.173737 -0.826769 50.895916 88.769897 380.553192
[Rear_Toe2_01]
45 178.200760 -294.826019 -362.060547 2.097224 54.568741 -68.327721 499.765686
46 178.200760 -294.826019 -362.060547 1.987699 53.909801 -68.447861 499.765686
47 178.200760 -294.826019 -362.060547 1.786224 52.447056 -68.688492 499.765686
[Rear_Toe3_01]
45 -153.359680 -308.780914 -362.060852 -2.504014 54.543541 -114.352425 499.952881
46 -153.359680 -308.780914 -362.060852 -2.392713 53.898212 -114.224434 499.952881
47 -153.359680 -308.780914 -362.060852 -2.152703 52.438793 -113.947342 499.952881
[planeLockWeightCenter]
45 1000.000122 0.000000 0.076008 -0.011814 -0.004373 -0.000015 1000.000122
46 843.752502 0.000153 0.076294 -0.011814 -0.004373 -0.000015 843.752502
47 500.005310 0.000038 0.076294 -0.011814 -0.004373 -0.000015 500.005310
[Rear_Toe1_02]
45 379.707825 0.194073 0.000477 -0.000767 -33.624729 0.000838 379.707855
46 379.707825 0.194073 0.000477 -0.000767 -33.624729 0.000838 379.707855
47 379.707825 0.194073 0.000477 -0.000767 -33.624729 0.000838 379.707855
[Rear_Toe1_03]
45 500.129700 0.165701 0.000119 -0.000033 52.585533 0.007351 500.129761
46 500.129700 0.165701 0.000119 -0.003864 57.307220 -0.000220 500.129761
47 500.129700 0.165701 0.000119 -0.001759 54.871998 0.003744 500.129761
[Rear_Toe2_02]
45 340.494507 0.000238 -0.000954 0.001175 -83.567451 0.001175 340.494507
46 340.494507 0.000238 -0.000954 0.001175 -83.949806 0.001175 340.494507
47 340.494507 0.000238 -0.000954 0.001175 -84.332062 0.001175 340.494507
[Rear_Toe2_03]
45 433.103577 0.000000 0.000238 179.974716 84.677711 179.974716 433.103546
46 433.103577 0.000000 0.000238 179.977295 84.076996 179.977295 433.103546
47 433.103577 0.000000 0.000238 179.981171 82.853500 179.981171 433.103546
[Rear_Toe3_02]
45 340.494141 -0.000358 -0.000477 0.001176 -83.414948 0.001176 340.494171
46 340.494141 -0.000358 -0.000477 0.001175 -83.802177 0.001175 340.494171
47 340.494141 -0.000358 -0.000477 0.001175 -84.189415 0.001175 340.494171
[Rear_Toe3_03]
45 433.103577 0.001431 -0.000238 -179.988525 85.019447 -179.985016 433.103546
46 433.103577 0.001431 -0.000238 -179.989960 84.417137 -179.986450 433.103546
47 433.103577 0.001431 -0.000238 -179.992081 83.180534 -179.988586 433.103546
[Back_Bone]
45 1312.175781 -701.934692 0.000954 0.092866 3.184185 -80.995880 1488.125488
46 1312.175781 -701.934692 0.000954 -0.222050 3.190005 -82.812607 1488.125488
47 1312.175781 -701.934692 0.000954 -0.536994 3.185853 -84.629364 1488.125488
[Head]
45 1406.159424 809.709290 0.001431 -6.576862 6.777883 4.493091 1622.625488
46 1406.159424 809.709290 0.001431 -6.925976 6.942524 4.425551 1622.625488
47 1406.159424 809.709290 0.001431 -7.275400 7.106748 4.356977 1622.625488
[Motor_Bone]
45 1158.364380 -417.834747 0.000477 -2.064749 -0.819210 -106.806320 1231.419434
46 1158.364380 -417.834747 0.000477 -1.940205 -0.666372 -106.653244 1231.419434
47 1158.364380 -417.834747 0.000477 -1.815256 -0.513867 -106.499825 1231.419434
[Ping_Mechanism]
45 1265.493408 -444.870026 -85.181816 0.000103 -0.000053 82.120995 1344.112671
46 1266.005737 -441.337311 -88.476814 0.000103 -0.000053 82.120995 1343.643311
47 1266.518188 -437.804596 -91.771797 0.000103 -0.000053 82.120995 1343.191528
[BN_LookIK]
45 193.241119 1380.371704 -0.002861 0.000000 89.965736 -31.038179 1393.832153
46 193.241119 1380.371704 -0.002861 0.000000 89.965736 -31.038179 1393.832153
47 193.241119 1380.371704 -0.002861 0.000000 89.965736 -31.038179 1393.832153
[bottomMouth]
45 -435.092926 615.759399 -0.000954 -0.000022 0.000016 73.527184 753.966492
46 -435.092926 615.759399 -0.000954 -0.000022 0.000016 73.527184 753.966492
47 -435.092926 615.759399 -0.000954 -0.000022 0.000016 73.527184 753.966492
[L_Mouth01]
45 554.440979 7.658243 838.222046 150.204178 23.759130 109.605339 1005.027161
46 554.440979 7.658243 838.222046 150.204178 23.759130 109.605339 1005.027161
47 554.440979 7.658243 838.222046 150.204178 23.759130 109.605339 1005.027161
[L_mouthFront]
45 551.629089 934.514771 339.150421 0.000081 2.804060 79.119301 1136.941284
46 551.629089 934.514771 339.150421 0.000081 2.804060 79.119301 1136.941284
47 551.629089 934.514771 339.150421 0.000081 2.804060 79.119301 1136.941284
[mouthGun]
45 55.332661 1627.420898 0.000000 0.000023 0.000009 -11.038128 1628.361328
46 55.332661 1627.420898 0.000000 0.000023 0.000009 -11.038128 1628.361328
47 55.332661 1627.420898 0.000000 0.000023 0.000009 -11.038128 1628.361328
[R_Mouth01]
45 554.442383 7.659197 -838.223938 29.795891 -23.759109 109.605331 1005.029541
46 554.442383 7.659197 -838.223938 29.795891 -23.759109 109.605331 1005.029541
47 554.442383 7.659197 -838.223938 29.795891 -23.759109 109.605331 1005.029541
[R_mouthFront]
45 551.629089 934.514282 -339.151367 0.000029 -2.803930 79.119133 1136.941162
46 551.629089 934.514282 -339.151367 0.000029 -2.803930 79.119133 1136.941162
47 551.629089 934.514282 -339.151367 0.000029 -2.803930 79.119133 1136.941162
[TopMouth]
45 461.269867 -56.106091 -0.008583 -0.000059 -0.000268 92.025169 464.669525
46 461.269867 -56.106091 -0.008583 -0.000059 -0.000268 92.025169 464.669525
47 461.269867 -56.106091 -0.008583 -0.000059 -0.000268 92.025169 464.669525
[weapon_bone]
45 -987.239868 1448.372803 0.001431 0.000000 89.965736 -31.038221 1752.833740
46 -987.239868 1448.372803 0.001431 0.000000 89.965736 -31.038221 1752.833740
47 -987.239868 1448.372803 0.001431 0.000000 89.965736 -31.038221 1752.833740
